# xmcd
#
# Track frame offsets:
#	150
#	14408
#	28058
#	39671
#	54979
#	70760
#	87712
#	98170
#	111607
#	122866
#	136602
#	150283
#	165691
#	179729
#	193299
#
# Disc length: 2774 seconds
#
# Revision: 0
# Processed by: cddbd v1.5.2PL0 Copyright (c) Steve Scherf et al.
# Submitted via: EasyCDDAExtractor 16.0.6.1
#
DISCID=d30ad40f
DTITLE=Συλλογικός δίσκος - Τα καλύτερα ελληνικά τραγούδια 1970
DYEAR=1970
DGENRE=Λαϊκή
TTITLE0=Κόκοτας Σταμάτης - Ο τρελλός [Γ. Σπανού-Λ. Παπαδόπουλου]
TTITLE1=Μοσχολιού Βίκυ - Ξύπνησε η πόλη [Γ. Σπανού-Λ. Παπαδόπουλου]
TTITLE2=Καλατζής Γιάννης - Τζαμάϊκα [Μ. Λοΐζου-Λ. Παπαδόπουλου]
TTITLE3=Μπιθικώτσης Γρηγόρης - Μίλησέ μου [Μ. Χατζιδάκι-Ν. Γκάτσου]
TTITLE4=Γαλάνη Δήμητρα - Η πίκρα σήμερα [Μ. Χατζιδάκι-Ν. Γκάτσου]
TTITLE5=Λοΐζος Μάνος - Σεβάχ ο Θαλασσινός [Μ. Λοΐζου-Λ. Παπαδόπουλου]
TTITLE6=Μητσιάς Μανώλης - Όσο αγαπιόμαστε τα δυό [Λ. Κηλαηδόνη]
TTITLE7=Μοσχολιού Βίκυ - Τα χέρια [Γ. Σπανού-Λ. Παπαδόπουλου]
TTITLE8=Γαλάνη Δήμητρα - Στης ζωής τη στράτα [Μ. Χατζιδάκι-Ν. Γκάτσου]
TTITLE9=Μπιθικώτσης Γρηγόρης - Ο έρωτας γεννήθηκε για δύο [Γ. Μπιθικώτση]
TTITLE10=Καλατζής Γιάννης - Η γοργόνα [Μ. Λοΐζου-Λ. Παπαδόπουλου]
TTITLE11=Μπιθικώτσης Γρηγόρης - Στου Μπελαμί το ουζερί [Γ. Μπιθικώτση-Κ. Βίρβο
TTITLE11=υ]
TTITLE12=Βοσκόπουλος Τόλης - Αποκλείεται [Γ. Κατσαρού-Πυθαγόρα]
TTITLE13=Δούκισσα - Άνθρωποι είμαστε [Γ. Κοινούση]
TTITLE14=Βοσκόπουλος Τόλης - Αδέλφια μου αλήτες πουλιά[Τ.Βοσκόπουλου-Η.Λυμπερό
TTITLE14=πουλου]
EXTD=
EXTT0=
EXTT1=
EXTT2=
EXTT3=
EXTT4=
EXTT5=
EXTT6=
EXTT7=
EXTT8=
EXTT9=
EXTT10=
EXTT11=
EXTT12=
EXTT13=
EXTT14=
PLAYORDER=
